<svg width="36" height="36" viewBox="0 0 36 36" fill="none" xmlns="http://www.w3.org/2000/svg">
<rect width="36" height="36" rx="9" fill="#00CCAE"/>
<path d="M11.4209 8.02374C11.7713 6.82437 12.871 6 14.1205 6H25.1875C26.7408 6 28 7.2592 28 8.8125V27.1875C28 28.7408 26.7408 30 25.1875 30H8.75183C6.87628 30 5.5262 28.199 6.0522 26.3987L11.4209 8.02374Z" fill="white"/>
<path d="M16.5938 11.7136H21.7319C22.0425 11.7136 22.2944 11.9655 22.2944 12.2761V22.7813" stroke="#222222" stroke-width="1.5" stroke-linecap="round" stroke-linejoin="round"/>
<path d="M12.6946 25.5938L11.9271 23.1467C11.8703 22.9655 12.0056 22.7812 12.1955 22.7812H24.367C24.5569 22.7812 24.6922 22.9655 24.6354 23.1467L23.8679 25.5938" stroke="#222222" stroke-width="1.5" stroke-linecap="round" stroke-linejoin="round"/>
<path d="M13.5105 18.8019H18.8542" stroke="#222222" stroke-width="1.5" stroke-linecap="round" stroke-linejoin="round"/>
<path d="M14.3542 15.6875H18.8542" stroke="#222222" stroke-width="1.5" stroke-linecap="round" stroke-linejoin="round"/>
</svg>
