<svg width="24" height="24" viewBox="0 0 24 24" fill="none" xmlns="http://www.w3.org/2000/svg">
<path d="M17 15C17.5523 15 18 14.5523 18 14C18 13.4477 17.5523 13 17 13C16.4477 13 16 13.4477 16 14C16 14.5523 16.4477 15 17 15Z" fill="#222222"/>
<path fill-rule="evenodd" clip-rule="evenodd" d="M3.5 6.5C3.5 5.39543 4.39543 4.5 5.5 4.5H17.25C17.6642 4.5 18 4.16421 18 3.75C18 3.33579 17.6642 3 17.25 3H5.5C3.567 3 2 4.567 2 6.5V18.5C2 20.433 3.567 22 5.5 22H18.5C20.433 22 22 20.433 22 18.5V17.6646C22.5826 17.4587 23 16.9031 23 16.25V11.75C23 11.0969 22.5826 10.5413 22 10.3354V9.5C22 7.567 20.433 6 18.5 6H6C5.58579 6 5.25 6.33579 5.25 6.75C5.25 7.16421 5.58579 7.5 6 7.5H18.5C19.6046 7.5 20.5 8.39543 20.5 9.5V10.25H17C14.9289 10.25 13.25 11.9289 13.25 14C13.25 16.0711 14.9289 17.75 17 17.75H20.5V18.5C20.5 19.6046 19.6046 20.5 18.5 20.5H5.5C4.39543 20.5 3.5 19.6046 3.5 18.5V6.5ZM17 11.75H21.5V16.25H17C15.7574 16.25 14.75 15.2426 14.75 14C14.75 12.7574 15.7574 11.75 17 11.75Z" fill="#222222"/>
</svg>
