<svg width="24" height="24" viewBox="0 0 24 24" fill="none" xmlns="http://www.w3.org/2000/svg">
<path d="M7.5 8.31759C7.5 7.90337 7.16421 7.56759 6.75 7.56759C6.33578 7.56759 6 7.90337 6 8.31759C6 10.7028 6.2757 12.6598 7.19953 14.2693C8.13536 15.8997 9.67248 17.0667 11.9643 18.011C12.3472 18.1688 12.7856 17.9863 12.9434 17.6033C13.1012 17.2203 12.9187 16.782 12.5357 16.6241C10.4275 15.7555 9.21463 14.7668 8.50046 13.5226C7.7743 12.2575 7.5 10.6209 7.5 8.31759Z" fill="#222222"/>
<path fill-rule="evenodd" clip-rule="evenodd" d="M12.8047 1.94277C12.2866 1.74434 11.7134 1.74434 11.1953 1.94277L3.88279 4.7433C3.01299 5.07641 2.43144 5.91742 2.44416 6.85764C2.49277 10.4513 2.82229 13.2397 4.08101 15.6025C5.34928 17.9832 7.50286 19.8288 10.967 21.6818C11.6121 22.0268 12.3879 22.0268 13.033 21.6818C16.4971 19.8288 18.6507 17.9832 19.919 15.6025C21.1777 13.2397 21.5072 10.4513 21.5558 6.85764C21.5686 5.91742 20.987 5.07642 20.1172 4.7433L12.8047 1.94277ZM11.7318 3.34355C11.9045 3.27741 12.0955 3.27741 12.2682 3.34355L19.5807 6.14408C19.8716 6.25548 20.0601 6.53482 20.056 6.83736C20.0079 10.3911 19.6751 12.87 18.5951 14.8972C17.5247 16.9065 15.6633 18.5737 12.3255 20.3591C12.1224 20.4677 11.8776 20.4677 11.6745 20.3591C8.33669 18.5737 6.47528 16.9065 5.40487 14.8972C4.32492 12.87 3.99209 10.3911 3.94402 6.83736C3.93993 6.53482 4.12839 6.25548 4.41926 6.14408L11.7318 3.34355Z" fill="#222222"/>
</svg>
