<svg width="32" height="32" viewBox="0 0 32 32" fill="none" xmlns="http://www.w3.org/2000/svg">
<rect width="32" height="32" rx="8" fill="#51ADFF"/>
<path fill-rule="evenodd" clip-rule="evenodd" d="M8 8C6.34315 8 5 9.34315 5 11V21C5 22.6569 6.34315 24 8 24H18C19.6569 24 21 22.6569 21 21V20C21 19.897 21.1176 19.8382 21.2 19.9L25.6 23.2C26.5889 23.9416 28 23.236 28 22V9.99998C28 8.76391 26.5889 8.05834 25.6 8.79998L21.2 12.1C21.1176 12.1618 21 12.103 21 12V11C21 9.34315 19.6569 8 18 8H8Z" fill="white"/>
<path d="M14.2383 14.4468C14.114 14.2154 14.0364 13.9618 14.0101 13.7005C13.9837 13.4392 14.0091 13.1752 14.0848 12.9237C14.1605 12.6722 14.285 12.4381 14.4511 12.2347C14.6173 12.0313 14.8219 11.8626 15.0532 11.7383C15.2846 11.614 15.5382 11.5364 15.7995 11.5101C16.0608 11.4837 16.3248 11.5091 16.5763 11.5848C16.8278 11.6605 17.0619 11.785 17.2653 11.9511C17.4687 12.1173 17.6374 12.3219 17.7617 12.5532" stroke="#222222" stroke-width="1.3" stroke-linecap="round" stroke-linejoin="round"/>
</svg>
