<svg width="56" height="56" viewBox="0 0 56 56" fill="none" xmlns="http://www.w3.org/2000/svg">
<path fill-rule="evenodd" clip-rule="evenodd" d="M18 10.5C17.1716 10.5 16.5 11.1716 16.5 12C16.5 12.8284 17.1716 13.5 18 13.5L38.9645 13.5C39.8554 13.5 40.3015 14.5771 39.6716 15.2071L10.9393 43.9393C10.3536 44.5251 10.3536 45.4749 10.9393 46.0607C11.5251 46.6464 12.4749 46.6464 13.0607 46.0607L41.7929 17.3284C42.4229 16.6985 43.5 17.1446 43.5 18.0355V39C43.5 39.8284 44.1716 40.5 45 40.5C45.8284 40.5 46.5 39.8284 46.5 39V12C46.5 11.1716 45.8284 10.5 45 10.5L18 10.5Z" fill="#fff"/>
</svg>
