<svg width="32" height="32" viewBox="0 0 32 32" fill="none" xmlns="http://www.w3.org/2000/svg">
<path fill-rule="evenodd" clip-rule="evenodd" d="M10 3.75C9.30964 3.75 8.75 4.30964 8.75 5C8.75 5.69036 9.30964 6.25 10 6.25L21.5678 6.25C22.4587 6.25 22.9049 7.32714 22.2749 7.95711L5.11612 25.1159C4.62796 25.6041 4.62796 26.3956 5.11612 26.8837C5.60427 27.3719 6.39573 27.3719 6.88388 26.8837L24.0429 9.72465C24.6729 9.09468 25.75 9.54085 25.75 10.4318V22C25.75 22.6904 26.3096 23.25 27 23.25C27.6904 23.25 28.25 22.6904 28.25 22V5C28.25 4.30964 27.6904 3.75 27 3.75L10 3.75Z" fill="#222222"/>
</svg>
