<svg width="24" height="24" viewBox="0 0 24 24" fill="none" xmlns="http://www.w3.org/2000/svg">
<path fill-rule="evenodd" clip-rule="evenodd" d="M9.5 2.25C8.25736 2.25 7.25 3.25736 7.25 4.5V6.25H3.875C2.42525 6.25 1.25 7.42525 1.25 8.875V10.1788C1.25 11.0035 1.63409 11.7547 2.25 12.2406V18C2.25 20.0711 3.92893 21.75 6 21.75H18C20.0711 21.75 21.75 20.0711 21.75 18V12.2406C22.3659 11.7547 22.75 11.0035 22.75 10.1788V8.875C22.75 7.42525 21.5747 6.25 20.125 6.25H16.75V4.5C16.75 3.25736 15.7426 2.25 14.5 2.25H9.5ZM15.25 6.25V4.5C15.25 4.08579 14.9142 3.75 14.5 3.75H9.5C9.08579 3.75 8.75 4.08579 8.75 4.5V6.25H15.25ZM20.125 7.75C20.7463 7.75 21.25 8.25368 21.25 8.875V10.1788C21.25 10.7016 20.8898 11.1556 20.3806 11.2744L13.7042 12.8322C12.5831 13.0938 11.4169 13.0938 10.2958 12.8322L3.61937 11.2744C3.1102 11.1556 2.75 10.7016 2.75 10.1788V8.875C2.75 8.25368 3.25368 7.75 3.875 7.75H20.125ZM14.0451 14.293L20.25 12.8451V18C20.25 19.2426 19.2426 20.25 18 20.25H6C4.75736 20.25 3.75 19.2426 3.75 18V12.8451L9.95493 14.293C11.3002 14.6069 12.6998 14.6069 14.0451 14.293Z" fill="#222222"/>
</svg>
