<svg width="24" height="24" viewBox="0 0 24 24" fill="none" xmlns="http://www.w3.org/2000/svg">
<path d="M9 8C9.41421 8 9.75 8.33579 9.75 8.75V11.25C9.75 11.6642 9.41421 12 9 12C8.58579 12 8.25 11.6642 8.25 11.25V8.75C8.25 8.33579 8.58579 8 9 8Z" fill="#222222"/>
<path d="M9.75 14.75C9.75 14.3358 9.41421 14 9 14C8.58579 14 8.25 14.3358 8.25 14.75V17.25C8.25 17.6642 8.58579 18 9 18C9.41421 18 9.75 17.6642 9.75 17.25V14.75Z" fill="#222222"/>
<path d="M11.75 8C12.1642 8 12.5 8.33579 12.5 8.75V11.25C12.5 11.6642 12.1642 12 11.75 12C11.3358 12 11 11.6642 11 11.25V8.75C11 8.33579 11.3358 8 11.75 8Z" fill="#222222"/>
<path d="M12.5 14.75C12.5 14.3358 12.1642 14 11.75 14C11.3358 14 11 14.3358 11 14.75V17.25C11 17.6642 11.3358 18 11.75 18C12.1642 18 12.5 17.6642 12.5 17.25V14.75Z" fill="#222222"/>
<path d="M6.25 8C6.66421 8 7 8.33579 7 8.75V11.25C7 11.6642 6.66421 12 6.25 12C5.83579 12 5.5 11.6642 5.5 11.25V8.75C5.5 8.33579 5.83579 8 6.25 8Z" fill="#222222"/>
<path d="M7 14.75C7 14.3358 6.66421 14 6.25 14C5.83579 14 5.5 14.3358 5.5 14.75V17.25C5.5 17.6642 5.83579 18 6.25 18C6.66421 18 7 17.6642 7 17.25V14.75Z" fill="#222222"/>
<path fill-rule="evenodd" clip-rule="evenodd" d="M15.75 4.54509C15.75 2.1291 13.2075 0.557734 11.0466 1.6382L4.32295 5C3.05251 5.63522 2.25 6.93371 2.25 8.3541V18C2.25 20.0711 3.92893 21.75 6 21.75H12C14.0711 21.75 15.75 20.0711 15.75 18V4.54509ZM11.7174 2.97984C12.881 2.39805 14.25 3.24417 14.25 4.54509V18C14.25 19.2426 13.2426 20.25 12 20.25H6C4.75736 20.25 3.75 19.2426 3.75 18V8.3541C3.75 7.50187 4.23151 6.72277 4.99377 6.34164L11.7174 2.97984Z" fill="#222222"/>
<path d="M17.1047 8.36779C17.3158 8.0114 17.7758 7.89361 18.1322 8.1047L21.1514 9.89298C21.9874 10.3881 22.5 11.2875 22.5 12.2591V19C22.5 20.5188 21.2688 21.75 19.75 21.75H16.75C16.3358 21.75 16 21.4142 16 21C16 20.5858 16.3358 20.25 16.75 20.25H19.75C20.4404 20.25 21 19.6904 21 19V12.2591C21 11.8175 20.767 11.4086 20.387 11.1836L17.3678 9.39531C17.0114 9.18422 16.8936 8.72418 17.1047 8.36779Z" fill="#222222"/>
<path d="M18.75 13C19.1642 13 19.5 13.3358 19.5 13.75V17.25C19.5 17.6642 19.1642 18 18.75 18C18.3358 18 18 17.6642 18 17.25V13.75C18 13.3358 18.3358 13 18.75 13Z" fill="#222222"/>
</svg>
