<svg width="32" height="32" viewBox="0 0 32 32" fill="none" xmlns="http://www.w3.org/2000/svg">
<g id="ca-32">
<g id="ca-64">
<g id="Base">
<rect id="Rectangle Rounded" width="32" height="32" rx="8" fill="#FF5A49"/>
</g>
<g id="1">
<path id="Union" fill-rule="evenodd" clip-rule="evenodd" d="M23.916 21.2013C23.5531 20.8093 23.5419 20.2127 23.8399 19.7693C24.8506 18.2659 25.4403 16.4559 25.4403 14.5082C25.4403 9.29366 21.2131 5.06641 15.9985 5.06641C10.7839 5.06641 6.55664 9.29366 6.55664 14.5082C6.55664 16.4564 7.14667 18.2668 8.15779 19.7704C8.45593 20.2138 8.44479 20.8105 8.0818 21.2025L6.80404 22.5825C6.4038 23.0148 6.42976 23.6896 6.86202 24.0899L10.3841 27.351C10.8163 27.7513 11.4912 27.7253 11.8915 27.2931L14.6706 24.2915C14.8982 24.0458 15.2279 23.925 15.5624 23.9402C15.707 23.9468 15.8523 23.9501 15.9985 23.9501C16.1452 23.9501 16.2911 23.9467 16.4362 23.9401C16.7709 23.9249 17.1006 24.0456 17.3282 24.2914L20.1075 27.2931C20.5078 27.7253 21.1826 27.7513 21.6149 27.351L25.137 24.0899C25.5692 23.6896 25.5952 23.0148 25.1949 22.5825L23.916 21.2013Z" fill="white"/>
<circle id="Ellipse" cx="16" cy="14.5" r="5.60672" stroke="#222222" stroke-width="1.3"/>
</g>
</g>
</g>
</svg>
