<svg width="24" height="24" viewBox="0 0 24 24" fill="none" xmlns="http://www.w3.org/2000/svg">
<path d="M14.4183 2.55468C12.4853 2.05977 10.4471 2.16983 8.57861 2.87002C6.71016 3.57021 5.10152 4.8268 3.96984 6.47017C2.83816 8.11354 2.23794 10.0646 2.25018 12.0599C2.26243 14.0552 2.88657 15.9987 4.03834 17.628C5.19011 19.2574 6.81405 20.4941 8.69095 21.1713C10.5679 21.8485 12.6073 21.9335 14.5341 21.4149C16.4609 20.8963 18.1821 19.799 19.4655 18.2712C20.7489 16.7434 21.5327 14.8586 21.711 12.8713C21.748 12.4587 21.4436 12.0943 21.031 12.0572C20.6185 12.0202 20.254 12.3247 20.217 12.7372C20.0661 14.4188 19.4029 16.0137 18.317 17.3064C17.231 18.5992 15.7746 19.5277 14.1442 19.9665C12.5139 20.4053 10.7882 20.3333 9.20004 19.7603C7.61189 19.1873 6.23778 18.1408 5.26321 16.7622C4.28863 15.3835 3.76052 13.739 3.75016 12.0506C3.73979 10.3623 4.24768 8.71146 5.20525 7.32091C6.16282 5.93037 7.52398 4.8671 9.10497 4.27463C10.686 3.68217 12.4107 3.58903 14.0463 4.0078C14.4475 4.11054 14.8561 3.86853 14.9589 3.46726C15.0616 3.06599 14.8196 2.65741 14.4183 2.55468Z" fill="#222222"/>
<path d="M21.5353 6.1911C21.8282 5.89821 21.8282 5.42333 21.5353 5.13044C21.2424 4.83755 20.7675 4.83755 20.4746 5.13044L12.4254 13.1796C11.9861 13.619 11.2738 13.619 10.8344 13.1796L7.84777 10.1929C7.55488 9.90005 7.08 9.90005 6.78711 10.1929C6.49422 10.4858 6.49422 10.9607 6.78711 11.2536L9.77378 14.2403C10.7989 15.2654 12.461 15.2654 13.4861 14.2403L21.5353 6.1911Z" fill="#222222"/>
</svg>
