<svg width="24" height="24" viewBox="0 0 24 24" fill="none" xmlns="http://www.w3.org/2000/svg">
<path fill-rule="evenodd" clip-rule="evenodd" d="M10.2026 1.87409C11.3228 1.26235 12.6772 1.26235 13.7973 1.87409L20.0456 5.28635C21.2494 5.94375 21.9982 7.20593 21.9982 8.57754L21.9983 15.4309C21.9983 16.8025 21.2494 18.0646 20.0456 18.7221L13.7974 22.1343C12.6772 22.7461 11.3228 22.7461 10.2026 22.1343L3.95435 18.7221C2.75056 18.0646 2.00172 16.8025 2.00172 15.4309L2.00171 8.57755C2.00171 7.20594 2.75055 5.94375 3.95434 5.28634L10.2026 1.87409ZM13.0784 3.19057C12.4063 2.82352 11.5937 2.82352 10.9216 3.19056L9.10426 4.18301L16.517 8.41336L19.5523 6.74397C19.4805 6.69289 19.4052 6.64571 19.3267 6.60283L13.0784 3.19057ZM14.9759 9.26094L7.55782 5.02755L4.67329 6.60282C4.59472 6.64573 4.51938 6.69293 4.4475 6.74405L11.9999 10.8977L14.9759 9.26094ZM3.50171 8.57754C3.50171 8.37283 3.52951 8.17217 3.5824 7.98015L11.2499 12.1971V20.9644C11.1377 20.9247 11.0279 20.8759 10.9216 20.8178L4.6733 17.4056C3.95102 17.0111 3.50172 16.2538 3.50172 15.4309L3.50171 8.57754ZM13.0784 20.8178C12.972 20.8759 12.8622 20.9248 12.7499 20.9645V12.1971L20.4175 7.98004C20.4704 8.17209 20.4982 8.37278 20.4982 8.57754L20.4983 15.4309C20.4983 16.2538 20.049 17.0111 19.3267 17.4056L13.0784 20.8178Z" fill="#222222"/>
</svg>
