<svg width="64" height="64" viewBox="0 0 64 64" fill="none" xmlns="http://www.w3.org/2000/svg">
<path d="M14.7309 20.6743C14.005 20.2751 13.0929 20.5399 12.6937 21.2658C12.2945 21.9917 12.5593 22.9038 13.2852 23.303L30.4999 32.7707V50.9923C30.4999 51.8207 31.1715 52.4923 31.9999 52.4923C32.8283 52.4923 33.4999 51.8207 33.4999 50.9923V32.7707L50.7146 23.303C51.4405 22.9038 51.7053 21.9917 51.3061 21.2658C50.9069 20.5399 49.9948 20.2751 49.2689 20.6743L31.9999 30.1718L14.7309 20.6743Z" fill="#222222"/>
<path fill-rule="evenodd" clip-rule="evenodd" d="M36.5534 5.60444C33.7156 4.0547 30.2845 4.05471 27.4467 5.60444L10.9463 14.6155C7.89669 16.281 5.99963 19.4785 5.99963 22.9532L5.99966 41.0468C5.99966 44.5215 7.89672 47.719 10.9463 49.3845L27.4468 58.3955C30.2845 59.9453 33.7157 59.9453 36.5534 58.3955L53.0538 49.3845C56.1034 47.719 58.0005 44.5215 58.0005 41.0467L58.0005 22.9532C58.0005 19.4785 56.1034 16.281 53.0538 14.6155L36.5534 5.60444ZM28.8846 8.2374C30.8262 7.17705 33.1739 7.17705 35.1155 8.2374L51.6159 17.2485C53.7025 18.388 55.0005 20.5758 55.0005 22.9532L55.0005 41.0468C55.0005 43.4242 53.7025 45.612 51.6159 46.7515L35.1155 55.7626C33.1739 56.8229 30.8263 56.8229 28.8847 55.7626L12.3842 46.7515C10.2977 45.612 8.99966 43.4242 8.99966 41.0468L8.99963 22.9532C8.99963 20.5758 10.2976 18.388 12.3842 17.2485L28.8846 8.2374Z" fill="#222222"/>
</svg>
