<svg width="32" height="32" viewBox="0 0 32 32" fill="none" xmlns="http://www.w3.org/2000/svg">
<rect width="32" height="32" rx="8" fill="#00CCAE"/>
<path d="M10.001 6.80673C10.3098 5.7367 11.2892 5 12.4029 5H22.5C23.8807 5 25 6.11929 25 7.5V24.5C25 25.8807 23.8807 27 22.5 27H7.49626C5.83251 27 4.63293 25.4052 5.0943 23.8067L10.001 6.80673Z" fill="white"/>
<path d="M14.75 10.3276H19.6734C19.9496 10.3276 20.1734 10.5514 20.1734 10.8276V20.3276" stroke="#222222" stroke-width="1.3" stroke-linecap="round" stroke-linejoin="round"/>
<path d="M11.2841 22.8276L10.6019 20.6524C10.5514 20.4914 10.6716 20.3276 10.8404 20.3276H21.6596C21.8284 20.3276 21.9486 20.4914 21.8981 20.6524L21.2159 22.8276" stroke="#222222" stroke-width="1.3" stroke-linecap="round" stroke-linejoin="round"/>
<path d="M12.25 16.6982H17" stroke="#222222" stroke-width="1.3" stroke-linecap="round" stroke-linejoin="round"/>
<path d="M13 13.6982H17" stroke="#222222" stroke-width="1.3" stroke-linecap="round" stroke-linejoin="round"/>
</svg>
