<svg width="24" height="24" viewBox="0 0 24 24" fill="none" xmlns="http://www.w3.org/2000/svg">
<path d="M12.3176 17.017C11.819 17.0443 11.3224 16.9355 10.8809 16.7023C10.7708 16.6442 10.6653 16.5788 10.5647 16.5069C10.9471 16.4726 11.2467 16.1513 11.2467 15.76C11.2467 15.3458 10.911 15.01 10.4967 15.01H8.74462C8.33041 15.01 7.99462 15.3458 7.99462 15.76V17.6566C7.99462 18.0708 8.33041 18.4066 8.74462 18.4066C9.15884 18.4066 9.49462 18.0708 9.49462 17.6566V17.5768C9.70719 17.7485 9.93668 17.8999 10.1803 18.0286C10.8623 18.3889 11.6294 18.5569 12.3995 18.5148C13.1697 18.4727 13.9139 18.222 14.5526 17.7895C15.1912 17.3571 15.7003 16.7592 16.0253 16.0597C16.1999 15.6841 16.0369 15.238 15.6612 15.0635C15.2856 14.8889 14.8396 15.0519 14.665 15.4276C14.4546 15.8804 14.125 16.2675 13.7115 16.5475C13.2981 16.8275 12.8162 16.9898 12.3176 17.017Z" fill="#222222"/>
<path d="M11.8817 12.0161C12.3832 11.9946 12.881 12.1105 13.3213 12.3513C13.415 12.4025 13.5053 12.459 13.5919 12.5203H13.471C13.0568 12.5203 12.721 12.8561 12.721 13.2703C12.721 13.6845 13.0568 14.0203 13.471 14.0203H15.2231C15.6373 14.0203 15.9731 13.6845 15.9731 13.2703V11.3736C15.9731 10.9594 15.6373 10.6236 15.2231 10.6236C14.8309 10.6236 14.509 10.9247 14.4759 11.3083C14.337 11.2089 14.1918 11.1176 14.041 11.0352C13.3608 10.6632 12.5919 10.4842 11.8174 10.5175C11.0428 10.5508 10.2921 10.7951 9.64636 11.2239C9.00057 11.6528 8.48425 12.25 8.15318 12.951C7.97628 13.3255 8.1365 13.7725 8.51104 13.9494C8.88558 14.1263 9.33261 13.9661 9.50951 13.5916C9.72385 13.1378 10.0581 12.7511 10.4762 12.4735C10.8943 12.1958 11.3803 12.0377 11.8817 12.0161Z" fill="#222222"/>
<path fill-rule="evenodd" clip-rule="evenodd" d="M19.75 18C19.75 20.0711 18.0711 21.75 16 21.75H8C5.92893 21.75 4.25 20.0711 4.25 18V6C4.25 3.92893 5.92893 2.25 8 2.25H13.0494C13.7787 2.25 14.4782 2.53973 14.9939 3.05546L18.9445 7.00605C19.4603 7.52178 19.75 8.22125 19.75 8.9506V18ZM5.75 6C5.75 4.75736 6.75736 3.75 8 3.75H12.25V7C12.25 8.51878 13.4812 9.75 15 9.75H18.25V18C18.25 19.2426 17.2426 20.25 16 20.25H8C6.75736 20.25 5.75 19.2426 5.75 18V6ZM18.0352 8.25H15C14.3096 8.25 13.75 7.69036 13.75 7V3.96478C13.8153 4.00898 13.8767 4.05956 13.9333 4.11612L17.8839 8.06672C17.9404 8.12328 17.991 8.1847 18.0352 8.25Z" fill="#222222"/>
</svg>
