<svg width="24" height="24" viewBox="0 0 24 24" fill="none" xmlns="http://www.w3.org/2000/svg">
<g clip-path="url(#clip0_3010_43813)">
<path fill-rule="evenodd" clip-rule="evenodd" d="M13.8905 3.1856C12.7029 2.6048 11.2971 2.6048 10.1095 3.1856L0.94943 7.6657C-0.321996 8.28753 -0.314498 10.0541 0.960151 10.6668L4.25 12.2481V16.3897C4.25 17.8485 5.31829 19.0138 6.6874 19.7706C8.08438 20.5429 9.96392 21 12 21C14.0361 21 15.9156 20.5429 17.3126 19.7706C18.6817 19.0138 19.75 17.8485 19.75 16.3897V12.2481L21.75 11.2868V14.7007C21.3017 14.96 21 15.4448 21 16C21 16.8284 21.6716 17.5 22.5 17.5C23.3284 17.5 24 16.8284 24 16C24 15.4448 23.6984 14.96 23.25 14.7007V10.5483C24.311 9.85191 24.2478 8.25125 23.0506 7.6657L13.8905 3.1856ZM10.7686 4.53307C11.5403 4.15564 12.4597 4.15564 13.2314 4.53307L22.3915 9.01317C22.4418 9.03776 22.4659 9.06551 22.4786 9.08632C22.4926 9.10929 22.5001 9.1361 22.5 9.16414C22.4999 9.19219 22.4922 9.21902 22.4779 9.24202C22.465 9.26287 22.4406 9.29055 22.39 9.31487L13.2146 13.7251C12.452 14.0916 11.548 14.0916 10.7854 13.7251L1.60997 9.31487C1.55938 9.29055 1.535 9.26287 1.52206 9.24202C1.50779 9.21902 1.50011 9.19219 1.5 9.16414C1.4999 9.13609 1.50738 9.10929 1.52141 9.08632C1.53411 9.06551 1.55817 9.03777 1.60846 9.01317L10.7686 4.53307ZM18.25 12.9691L13.8645 15.077C12.6911 15.641 11.3089 15.641 10.1355 15.077L5.75 12.9691V16.3897C5.75 17.0492 6.24871 17.8142 7.41311 18.4579C8.54963 19.0861 10.1701 19.5 12 19.5C13.8299 19.5 15.4504 19.0861 16.5869 18.4579C17.7513 17.8142 18.25 17.0492 18.25 16.3897V12.9691Z" fill="#222222"/>
</g>
<defs>
<clipPath id="clip0_3010_43813">
<rect width="24" height="24" fill="white"/>
</clipPath>
</defs>
</svg>
