<svg width="36" height="36" viewBox="0 0 36 36" fill="none" xmlns="http://www.w3.org/2000/svg">
<g id="elba-36">
<g id="elba-64">
<g id="Base">
<rect id="Rectangle Rounded" width="36" height="36" rx="9" fill="#4E7BF9"/>
</g>
<g id="&#208;&#149;lbik">
<g id="Base_2">
<path id="Rectangle 7144" d="M6.75 16.875C6.75 13.1471 9.77208 10.125 13.5 10.125H22.5C26.2279 10.125 29.25 13.1471 29.25 16.875V18C29.25 24.2132 24.2132 29.25 18 29.25V29.25C11.7868 29.25 6.75 24.2132 6.75 18V16.875Z" fill="white"/>
<circle id="Ellipse 994" cx="10.6875" cy="14.0625" r="6.1875" fill="white"/>
<circle id="Ellipse 995" cx="25.3125" cy="14.0625" r="6.1875" fill="white"/>
</g>
<g id="Subtract">
<path fill-rule="evenodd" clip-rule="evenodd" d="M12.8098 22.5C13.9142 24.1949 15.8263 25.3153 18 25.3153C20.1738 25.3153 22.0859 24.1949 23.1902 22.5H23.1835C22.0798 24.1916 20.1705 25.3097 18 25.3097C15.8295 25.3097 13.9202 24.1916 12.8165 22.5H12.8098Z" fill="#222222"/>
<path d="M12.8098 22.5V21.75C12.5346 21.75 12.2815 21.9007 12.1504 22.1426C12.0193 22.3846 12.0312 22.6789 12.1814 22.9094L12.8098 22.5ZM23.1902 22.5L23.8186 22.9094C23.9688 22.6789 23.9807 22.3846 23.8496 22.1426C23.7185 21.9007 23.4654 21.75 23.1902 21.75V22.5ZM23.1835 22.5V21.75C22.9301 21.75 22.6938 21.878 22.5554 22.0902L23.1835 22.5ZM12.8165 22.5L13.4447 22.0902C13.3062 21.878 13.0699 21.75 12.8165 21.75V22.5ZM18 24.5653C16.0904 24.5653 14.41 23.582 13.4382 22.0906L12.1814 22.9094C13.4184 24.8077 15.5621 26.0653 18 26.0653V24.5653ZM22.5619 22.0906C21.59 23.582 19.9097 24.5653 18 24.5653V26.0653C20.4379 26.0653 22.5817 24.8077 23.8186 22.9094L22.5619 22.0906ZM23.1902 21.75H23.1835V23.25H23.1902V21.75ZM18 26.0597C20.4345 26.0597 22.5754 24.8047 23.8116 22.9098L22.5554 22.0902C21.5843 23.5786 19.9065 24.5597 18 24.5597V26.0597ZM12.1884 22.9098C13.4247 24.8047 15.5656 26.0597 18 26.0597V24.5597C16.0935 24.5597 14.4157 23.5786 13.4447 22.0902L12.1884 22.9098ZM12.8165 21.75H12.8098V23.25H12.8165V21.75Z" fill="#222222"/>
</g>
<circle id="Ellipse 997" cx="25.3125" cy="14.0625" r="3.9375" stroke="#222222" stroke-width="1.5"/>
<circle id="Ellipse 998" cx="10.6875" cy="14.0625" r="3.9375" stroke="#222222" stroke-width="1.5"/>
<circle id="Dot" r="1.40625" transform="matrix(-4.37114e-08 1 1 4.37114e-08 27.2812 12.0938)" fill="#222222"/>
<circle id="Dot_2" r="1.40625" transform="matrix(-4.37114e-08 1 1 4.37114e-08 12.6562 12.0938)" fill="#222222"/>
</g>
</g>
</g>
</svg>
