<svg width="32" height="32" viewBox="0 0 32 32" fill="none" xmlns="http://www.w3.org/2000/svg">
<g id="elba-32">
<g id="elba-64">
<g id="Base">
<rect id="Rectangle Rounded" width="32" height="32" rx="8" fill="#4E7BF9"/>
</g>
<g id="&#208;&#149;lbik">
<g id="Base_2">
<path id="Rectangle 7144" d="M6 15C6 11.6863 8.68629 9 12 9H20C23.3137 9 26 11.6863 26 15V16C26 21.5228 21.5228 26 16 26V26C10.4772 26 6 21.5228 6 16V15Z" fill="white"/>
<circle id="Ellipse 994" cx="9.5" cy="12.5" r="5.5" fill="white"/>
<circle id="Ellipse 995" cx="22.5" cy="12.5" r="5.5" fill="white"/>
</g>
<g id="Subtract">
<path fill-rule="evenodd" clip-rule="evenodd" d="M11.3865 20C12.3682 21.5066 14.0678 22.5025 16 22.5025C17.9323 22.5025 19.6319 21.5066 20.6135 20H20.6076C19.6265 21.5037 17.9293 22.4975 16 22.4975C14.0707 22.4975 12.3735 21.5037 11.3925 20H11.3865Z" fill="#222222"/>
<path d="M11.3865 20V19.35C11.148 19.35 10.9287 19.4806 10.815 19.6903C10.7014 19.9 10.7117 20.155 10.8419 20.3549L11.3865 20ZM20.6135 20L21.1581 20.3549C21.2883 20.155 21.2986 19.9 21.185 19.6903C21.0714 19.4806 20.852 19.35 20.6135 19.35V20ZM20.6076 20V19.35C20.388 19.35 20.1832 19.4609 20.0632 19.6448L20.6076 20ZM11.3925 20L11.9369 19.6448C11.8169 19.4609 11.6121 19.35 11.3925 19.35V20ZM16 21.8525C14.2967 21.8525 12.7979 20.9754 11.9311 19.6451L10.8419 20.3549C11.9385 22.0377 13.8389 23.1525 16 23.1525V21.8525ZM20.069 19.6451C19.2022 20.9754 17.7033 21.8525 16 21.8525V23.1525C18.1612 23.1525 20.0616 22.0377 21.1581 20.3549L20.069 19.6451ZM20.6135 19.35H20.6076V20.65H20.6135V19.35ZM16 23.1475C18.1581 23.1475 20.056 22.035 21.152 20.3552L20.0632 19.6448C19.1971 20.9724 17.7006 21.8475 16 21.8475V23.1475ZM10.8481 20.3552C11.944 22.035 13.8419 23.1475 16 23.1475V21.8475C14.2995 21.8475 12.803 20.9724 11.9369 19.6448L10.8481 20.3552ZM11.3925 19.35H11.3865V20.65H11.3925V19.35Z" fill="#222222"/>
</g>
<circle id="Ellipse 997" cx="22.5" cy="12.5" r="3.5" stroke="#222222" stroke-width="1.3"/>
<circle id="Ellipse 998" cx="9.5" cy="12.5" r="3.5" stroke="#222222" stroke-width="1.3"/>
<circle id="Dot" r="1.25" transform="matrix(-4.37114e-08 1 1 4.37114e-08 24.25 10.75)" fill="#222222"/>
<circle id="Dot_2" r="1.25" transform="matrix(-4.37114e-08 1 1 4.37114e-08 11.25 10.75)" fill="#222222"/>
</g>
</g>
</g>
</svg>
