<svg width="64" height="64" viewBox="0 0 64 64" fill="none" xmlns="http://www.w3.org/2000/svg">
<path fill-rule="evenodd" clip-rule="evenodd" d="M9.99867 44.4333C17.1259 41.0599 24.1853 41.1941 31.3179 44.836C38.9863 48.7514 46.7383 49.0404 54.4444 45.6615C56.0679 44.9497 57.002 43.3345 57.002 41.6634V12.9502C57.002 10.6668 54.6394 9.34114 52.7047 10.1421C46.0347 12.9033 39.4006 12.5945 32.6821 9.1641C25.2146 5.3512 17.6643 4.9748 10.1485 8.08672C8.136 8.91998 7 10.9107 6.99992 12.9487L6.99871 43.4467C6.99738 43.4829 6.99738 43.5193 6.9987 43.5557L6.99803 60.498C6.998 61.3264 7.66954 61.998 8.49797 61.998C9.3264 61.9981 9.998 61.3265 9.99803 60.4981L9.99867 44.4333ZM31.3179 11.836C24.599 8.40534 17.9662 8.0968 11.2961 10.8585C10.5315 11.1751 9.99995 11.9811 9.99992 12.9489L9.9988 41.1484C17.5457 37.978 25.1468 38.3166 32.6821 42.1641C39.5752 45.6836 46.3845 45.9198 53.2397 42.914C53.6809 42.7206 54.002 42.2467 54.002 41.6634V12.9502L54.0019 12.9468C54.0019 12.9468 53.9998 12.9443 53.998 12.9425C53.9938 12.9382 53.9873 12.9325 53.9781 12.9268C53.9587 12.9145 53.9356 12.9066 53.9135 12.9044C53.8943 12.9024 53.8749 12.9045 53.8522 12.9139C46.3365 16.0252 38.785 15.6487 31.3179 11.836Z" fill="#222222"/>
</svg>
