<svg width="32" height="32" viewBox="0 0 32 32" fill="none" xmlns="http://www.w3.org/2000/svg">
<g id="focus-32">
<g id="focus-64">
<g id="Base">
<rect id="Rectangle Rounded" width="32" height="32" rx="8" fill="#3DBC5D"/>
</g>
<g id="Icon">
<path id="P64" fill-rule="evenodd" clip-rule="evenodd" d="M5.39341 12.818C3.63605 14.5754 3.63605 17.4246 5.39341 19.182L12.818 26.6066C14.5754 28.364 17.4246 28.364 19.182 26.6066L26.6066 19.182C28.364 17.4246 28.364 14.5754 26.6066 12.818L19.182 5.3934C17.4246 3.63604 14.5754 3.63604 12.818 5.3934L5.39341 12.818Z" fill="white"/>
<g id="Focus">
<path id="Path" fill-rule="evenodd" clip-rule="evenodd" d="M23.6489 14.3732C23.6489 13.2408 22.7314 12.3232 21.599 12.3232C20.4666 12.3232 19.549 13.2408 19.549 14.3732C19.549 15.5056 20.4666 16.4231 21.599 16.4231C22.7314 16.4231 23.6489 15.5056 23.6489 14.3732Z" stroke="#222222" stroke-width="1.3"/>
<path id="Path_2" fill-rule="evenodd" clip-rule="evenodd" d="M17.9287 20.3871C17.9287 19.1098 16.8927 18.0746 15.6162 18.0746C14.339 18.0746 13.3037 19.1098 13.3037 20.3871C13.3037 21.6644 14.339 22.6996 15.6162 22.6996C16.8927 22.6996 17.9287 21.6644 17.9287 20.3871Z" stroke="#222222" stroke-width="1.3"/>
<path id="Path_3" fill-rule="evenodd" clip-rule="evenodd" d="M12.1382 15.8673C12.1382 14.7348 11.2206 13.8173 10.0882 13.8173C8.95579 13.8173 8.03821 14.7348 8.03821 15.8673C8.03821 16.9997 8.95579 17.9173 10.0882 17.9173C11.2206 17.9173 12.1382 16.9997 12.1382 15.8673Z" stroke="#222222" stroke-width="1.3"/>
<path id="Path_4" d="M17.2682 18.7668L20.1822 15.8527" stroke="#222222" stroke-width="1.3"/>
<path id="Path_5" d="M13.6282 19.205L11.6218 17.1987" stroke="#222222" stroke-width="1.3"/>
</g>
</g>
</g>
</g>
</svg>
