<svg width="36" height="36" viewBox="0 0 36 36" fill="none" xmlns="http://www.w3.org/2000/svg">
<g id="focus-36">
<g id="focus-64">
<g id="Base">
<rect id="Rectangle Rounded" width="36" height="36" rx="9" fill="#3DBC5D"/>
</g>
<g id="Icon">
<path id="P64" fill-rule="evenodd" clip-rule="evenodd" d="M6.06757 14.4202C4.09054 16.3972 4.09054 19.6026 6.06757 21.5797L14.4203 29.9324C16.3973 31.9094 19.6027 31.9094 21.5797 29.9324L29.9324 21.5797C31.9094 19.6026 31.9094 16.3972 29.9324 14.4202L21.5797 6.06751C19.6027 4.09048 16.3973 4.09048 14.4203 6.06751L6.06757 14.4202Z" fill="white"/>
<g id="Focus">
<path id="Path" fill-rule="evenodd" clip-rule="evenodd" d="M26.605 16.1698C26.605 14.8959 25.5728 13.8636 24.2989 13.8636C23.0249 13.8636 21.9927 14.8959 21.9927 16.1698C21.9927 17.4438 23.0249 18.476 24.2989 18.476C25.5728 18.476 26.605 17.4438 26.605 16.1698Z" stroke="#222222" stroke-width="1.5"/>
<path id="Path_2" fill-rule="evenodd" clip-rule="evenodd" d="M20.1698 22.9355C20.1698 21.4986 19.0043 20.3339 17.5683 20.3339C16.1313 20.3339 14.9667 21.4986 14.9667 22.9355C14.9667 24.3724 16.1313 25.537 17.5683 25.537C19.0043 25.537 20.1698 24.3724 20.1698 22.9355Z" stroke="#222222" stroke-width="1.5"/>
<path id="Path_3" fill-rule="evenodd" clip-rule="evenodd" d="M13.6555 17.8507C13.6555 16.5767 12.6232 15.5444 11.3492 15.5444C10.0752 15.5444 9.04297 16.5767 9.04297 17.8507C9.04297 19.1247 10.0752 20.1569 11.3492 20.1569C12.6232 20.1569 13.6555 19.1247 13.6555 17.8507Z" stroke="#222222" stroke-width="1.5"/>
<path id="Path_4" d="M19.4267 21.1126L22.705 17.8343" stroke="#222222" stroke-width="1.5"/>
<path id="Path_5" d="M15.3316 21.6056L13.0745 19.3485" stroke="#222222" stroke-width="1.5"/>
</g>
</g>
</g>
</g>
</svg>
