<svg width="36" height="36" viewBox="0 0 36 36" fill="none" xmlns="http://www.w3.org/2000/svg">
<g clip-path="url(#clip0_7377_96089)">
<g clip-path="url(#clip1_7377_96089)">
<rect width="36" height="36" rx="9" fill="#00CCAE"/>
</g>
<path d="M10.3289 8.03384C10.6759 6.82942 11.7781 6 13.0315 6H27.1875C28.7408 6 30 7.2592 30 8.8125V27.1875C30 28.7408 28.7408 30 27.1875 30H7.73725C5.86608 30 4.51664 28.2069 5.03469 26.4088L10.3289 8.03384Z" fill="white"/>
<circle cx="14.625" cy="17.1562" r="2.53125" stroke="#222222" stroke-width="1.5"/>
<path d="M19.125 24.1875C19.125 21.7022 17.1103 19.6875 14.625 19.6875C12.1397 19.6875 10.125 21.7022 10.125 24.1875" stroke="#222222" stroke-width="1.5" stroke-linecap="round"/>
<circle cx="23.0625" cy="13.7812" r="2.53125" stroke="#222222" stroke-width="1.5"/>
<path d="M27.5625 20.8125C27.5625 18.3272 25.5478 16.3125 23.0625 16.3125C20.5772 16.3125 18.5625 18.3272 18.5625 20.8125V21.9375" stroke="#222222" stroke-width="1.5" stroke-linecap="round"/>
</g>
<defs>
<clipPath id="clip0_7377_96089">
<rect width="36" height="36" fill="white"/>
</clipPath>
<clipPath id="clip1_7377_96089">
<rect width="36" height="36" fill="white"/>
</clipPath>
</defs>
</svg>
