<svg width="106" height="36" fill="none" xmlns="http://www.w3.org/2000/svg"><g clip-path="url(#clip0)"><path d="M14.5486 17.341L22.6226 29h-4.5202l-6.9517-9.9444H7.81511V29H3.85605V10.5763H.863366L2.85849 6.86664h4.95662v8.75986h3.33559l6.6088-8.75986h4.4891l-7.7 10.47436zm6.8583 3.6785c0-1.7249.3948-3.2317 1.1846-4.5202.7689-1.2054 1.8184-2.1302 3.1485-2.7744 1.3301-.6443 2.7641-.9664 4.302-.9664 1.5795 0 3.0031.3117 4.2708.9352 1.3301.6442 2.3796 1.6002 3.1485 2.868.769 1.2469 1.1535 2.7329 1.1535 4.4578 0 1.7458-.3845 3.2525-1.1535 4.5202-.7689 1.247-1.8184 2.2134-3.1485 2.8992-1.3093.665-2.7329.9975-4.2708.9975-1.5171 0-2.9407-.3325-4.2708-.9975-1.3509-.6651-2.4212-1.6315-3.2109-2.8992-.769-1.2885-1.1534-2.7952-1.1534-4.5202zm67.2417-7.7622h3.5227v2.1509c.5403-.8313 1.2573-1.4651 2.151-1.9016.9144-.4572 2.0886-.6858 3.5226-.6858 1.4756 0 2.7851.3325 3.9281.9976 1.101.6858 1.953 1.6626 2.556 2.9303.624 1.247.935 2.681.935 4.302 0 1.6418-.311 3.0966-.935 4.3643-.603 1.247-1.455 2.2134-2.556 2.8992-.52.3533-1.133.6131-1.8395.7793-.6858.1871-1.382.2806-2.0886.2806-1.2262 0-2.1406-.0935-2.7433-.2806-1.2469-.3741-2.1302-.9975-2.6498-1.8704v7.357h-3.8032V13.2573zm-48.0075 0h3.772v5.9853h6.453v-5.9853h3.7408V29h-3.7408v-6.64h-6.453V29h-3.772V13.2573zm15.618 0h14.4958v2.9926H65.393V29h-3.8343V16.2499h-5.2996v-2.9926zm19.7018 0c1.4132 3.8655 2.7018 7.6895 3.8656 11.4719 1.1014-3.7409 2.3484-7.5648 3.7408-11.4719h3.8032l-5.7983 16.0544c-.478 1.3093-.9352 2.3173-1.3716 3.0239-.478.7066-1.0703 1.2365-1.7769 1.5899-.6859.374-1.6003.5611-2.7433.5611-.6443 0-.9976-.0104-1.0599-.0312l-1.2782-2.9927c.3949.0832.8833.1247 1.4652.1247.7066 0 1.2781-.1039 1.7146-.3117.3948-.1663.6962-.3949.904-.6858.2078-.2702.3845-.6131.5299-1.0288l-5.9853-16.3038h3.9902zm-50.7197 7.731c0 1.725.4157 3.0447 1.247 3.9591.8313.8937 1.9847 1.3405 3.4603 1.3405 1.4963 0 2.6601-.4468 3.4914-1.3405.8521-.9144 1.2782-2.2341 1.2782-3.9591 0-1.6833-.4157-2.9511-1.247-3.8032-.8313-.8728-2.0055-1.3092-3.5226-1.3092-1.4964 0-2.6602.4364-3.4915 1.3092-.8105.8521-1.2158 2.1199-1.2158 3.8032zm67.1171.0312c.0416 1.5587.4572 2.8057 1.247 3.7409.7897.9352 1.9016 1.4028 3.3356 1.4028s2.5354-.4676 3.3041-1.4028c.79-.9352 1.195-2.1822 1.216-3.7409-.021-1.5379-.426-2.7641-1.216-3.6785-.7687-.9352-1.8701-1.4028-3.3041-1.4028s-2.5459.4572-3.3356 1.3716c-.7898.9145-1.2054 2.151-1.247 3.7097z" fill="#222"/></g><defs><clipPath id="clip0"><path fill="#fff" d="M0 0h106v36H0z"/></clipPath></defs></svg>
