<svg width="64" height="64" viewBox="0 0 64 64" fill="none" xmlns="http://www.w3.org/2000/svg">
<path fill-rule="evenodd" clip-rule="evenodd" d="M32 6C17.6406 6 5.99997 17.6406 5.99997 32C5.99997 46.3594 17.6406 58 32 58C46.3594 58 58 46.3594 58 32C58 17.6406 46.3594 6 32 6ZM25.7471 9.86017C19.7382 11.5538 14.727 15.6279 11.796 21H21.4106C21.9246 18.447 22.6141 16.119 23.4478 14.1042C24.1106 12.5025 24.8786 11.0646 25.7471 9.86017ZM8.99997 32C8.99997 29.1868 9.50504 26.4915 10.4295 24H20.9029C20.5526 26.5245 20.3648 29.2151 20.3648 32.0005C20.3648 34.7856 20.5525 37.4758 20.9027 40H10.4295C9.50504 37.5085 8.99997 34.8132 8.99997 32ZM11.796 43C14.7269 48.3718 19.7376 52.4457 25.7461 54.1396C24.878 52.9354 24.1104 51.4979 23.4478 49.8968C22.614 47.8818 21.9244 45.5534 21.4104 43H11.796ZM24.4749 43C24.9376 45.1432 25.5293 47.0808 26.2199 48.7498C27.0925 50.8586 28.0935 52.4667 29.1283 53.5245C30.1582 54.5773 31.1286 54.9986 32.0019 54.9986C32.8752 54.9986 33.8456 54.5773 34.8755 53.5245C35.9103 52.4667 36.9113 50.8586 37.7839 48.7498C38.4745 47.0808 39.0662 45.1432 39.5289 43H24.4749ZM42.5934 43C42.0794 45.5534 41.3898 47.8818 40.556 49.8968C39.8937 51.4973 39.1264 52.9343 38.2587 54.1382C44.265 52.4435 49.2739 48.3703 52.2039 43H42.5934ZM53.5705 40H43.1011C43.4513 37.4758 43.6391 34.7856 43.6391 32.0005C43.6391 29.2151 43.4513 26.5245 43.1009 24H53.5705C54.4949 26.4915 55 29.1868 55 32C55 34.8132 54.4949 37.5085 53.5705 40ZM40.0706 40H23.9332C23.5667 37.5122 23.3648 34.8196 23.3648 32.0005C23.3648 29.1811 23.5667 26.4881 23.9334 24H40.0705C40.4371 26.4881 40.6391 29.1811 40.6391 32.0005C40.6391 34.8196 40.4371 37.5122 40.0706 40ZM42.5932 21H52.2039C49.2737 15.6294 44.2645 11.556 38.2577 9.86154C39.1258 11.0657 39.8935 12.5031 40.556 14.1042C41.3897 16.119 42.0792 18.447 42.5932 21ZM26.2199 15.2513C25.5294 16.92 24.9378 18.8572 24.4751 21H39.5287C39.066 18.8572 38.4744 16.92 37.7839 15.2513C36.9113 13.1425 35.9103 11.5343 34.8755 10.4766C33.8456 9.42382 32.8752 9.00243 32.0019 9.00243C31.1286 9.00243 30.1582 9.42382 29.1283 10.4766C28.0935 11.5343 27.0925 13.1425 26.2199 15.2513Z" fill="#222222"/>
</svg>
