<svg width="24" height="24" viewBox="0 0 24 24" fill="none" xmlns="http://www.w3.org/2000/svg">
<path d="M12 15C12 15.5523 11.5523 16 11 16C10.4477 16 10 15.5523 10 15C10 14.4477 10.4477 14 11 14C11.5523 14 12 14.4477 12 15Z" fill="#222222"/>
<path d="M11 19C11.5523 19 12 18.5523 12 18C12 17.4477 11.5523 17 11 17C10.4477 17 10 17.4477 10 18C10 18.5523 10.4477 19 11 19Z" fill="#222222"/>
<path d="M15 15C15 15.5523 14.5523 16 14 16C13.4477 16 13 15.5523 13 15C13 14.4477 13.4477 14 14 14C14.5523 14 15 14.4477 15 15Z" fill="#222222"/>
<path d="M14 19C14.5523 19 15 18.5523 15 18C15 17.4477 14.5523 17 14 17C13.4477 17 13 17.4477 13 18C13 18.5523 13.4477 19 14 19Z" fill="#222222"/>
<path d="M18 15C18 15.5523 17.5523 16 17 16C16.4477 16 16 15.5523 16 15C16 14.4477 16.4477 14 17 14C17.5523 14 18 14.4477 18 15Z" fill="#222222"/>
<path d="M17 19C17.5523 19 18 18.5523 18 18C18 17.4477 17.5523 17 17 17C16.4477 17 16 17.4477 16 18C16 18.5523 16.4477 19 17 19Z" fill="#222222"/>
<path fill-rule="evenodd" clip-rule="evenodd" d="M2.25 3.125C2.25 2.08947 3.08947 1.25 4.125 1.25H9.875C10.9105 1.25 11.75 2.08947 11.75 3.125V4.875C11.75 5.91053 10.9105 6.75 9.875 6.75H7.75V8.25H9.5C10.6581 8.25 11.6119 9.12501 11.7363 10.25H13.25V6.73641C13.25 5.81697 14.2931 5.28579 15.0367 5.82658L16.1469 6.63401L17.0091 5.88754C17.2909 5.64355 17.7091 5.64355 17.9909 5.88754L18.8531 6.63401L19.9633 5.82659C20.7069 5.28579 21.75 5.81697 21.75 6.73641V19.5C21.75 21.2949 20.2949 22.75 18.5 22.75H5.5C3.70507 22.75 2.25 21.2949 2.25 19.5V10.5C2.25 9.25736 3.25736 8.25 4.5 8.25H6.25V6.75H4.125C3.08947 6.75 2.25 5.91053 2.25 4.875V3.125ZM9.875 5.25C10.0821 5.25 10.25 5.08211 10.25 4.875V3.125C10.25 2.91789 10.0821 2.75 9.875 2.75H4.125C3.91789 2.75 3.75 2.91789 3.75 3.125V4.875C3.75 5.08211 3.91789 5.25 4.125 5.25H9.875ZM4.5 9.75C4.08579 9.75 3.75 10.0858 3.75 10.5V19.5C3.75 20.4665 4.5335 21.25 5.5 21.25H18.5C19.4665 21.25 20.25 20.4665 20.25 19.5V13.5C20.25 12.5335 19.4665 11.75 18.5 11.75H11C10.5858 11.75 10.25 11.4142 10.25 11V10.5C10.25 10.0858 9.91421 9.75 9.5 9.75H4.5ZM14.75 10.25H18.5C19.1443 10.25 19.7449 10.4375 20.25 10.7609V7.47283L19.2536 8.19746C18.9715 8.40261 18.5853 8.38622 18.3216 8.15792L17.5 7.44659L16.6784 8.15792C16.4147 8.38622 16.0285 8.40261 15.7464 8.19746L14.75 7.47283V10.25Z" fill="#222222"/>
</svg>
