<svg width="36" height="36" viewBox="0 0 36 36" fill="none" xmlns="http://www.w3.org/2000/svg">
<g id="normativ-36">
<g id="normativ-64">
<g id="Base">
<rect id="Rectangle Rounded" width="36" height="36" rx="9" fill="#FF8227"/>
</g>
<g id="Icon">
<path id="Union" fill-rule="evenodd" clip-rule="evenodd" d="M25.2426 21.0884C26.0051 19.6657 26.4375 18.0396 26.4375 16.3125C26.4375 10.7206 21.9044 6.1875 16.3125 6.1875C10.7206 6.1875 6.1875 10.7206 6.1875 16.3125C6.1875 21.9044 10.7206 26.4375 16.3125 26.4375C18.0382 26.4375 19.6631 26.0058 21.085 25.2444L25.7019 29.8613C26.1706 30.3299 26.9304 30.3299 27.399 29.8613L29.8587 27.4016C30.3273 26.933 30.3273 26.1732 29.8587 25.7045L25.2426 21.0884Z" fill="white"/>
<path id="Vector" fill-rule="evenodd" clip-rule="evenodd" d="M22.5 16.3125C22.5 12.8945 19.7305 10.125 16.3125 10.125C12.8945 10.125 10.125 12.8945 10.125 16.3125C10.125 19.7305 12.8945 22.5 16.3125 22.5C19.7305 22.5 22.5 19.7305 22.5 16.3125Z" stroke="#222222" stroke-width="1.5"/>
</g>
</g>
</g>
</svg>
