<svg width="64" height="64" viewBox="0 0 64 64" fill="none" xmlns="http://www.w3.org/2000/svg">
<path d="M33.5 19C33.5 18.1716 32.8284 17.5 32 17.5C31.1716 17.5 30.5 18.1716 30.5 19V30.5H19C18.1716 30.5 17.5 31.1716 17.5 32C17.5 32.8284 18.1716 33.5 19 33.5H30.5V45C30.5 45.8284 31.1716 46.5 32 46.5C32.8284 46.5 33.5 45.8284 33.5 45V33.5H45C45.8284 33.5 46.5 32.8284 46.5 32C46.5 31.1716 45.8284 30.5 45 30.5H33.5V19Z" fill="#222222"/>
<path fill-rule="evenodd" clip-rule="evenodd" d="M17.5 7C11.701 7 7 11.701 7 17.5V46.5C7 52.299 11.701 57 17.5 57H46.5C52.299 57 57 52.299 57 46.5V17.5C57 11.701 52.299 7 46.5 7H17.5ZM10 17.5C10 13.3579 13.3579 10 17.5 10H46.5C50.6421 10 54 13.3579 54 17.5V46.5C54 50.6421 50.6421 54 46.5 54H17.5C13.3579 54 10 50.6421 10 46.5V17.5Z" fill="#222222"/>
</svg>
