<svg width="64" height="64" viewBox="0 0 64 64" fill="none" xmlns="http://www.w3.org/2000/svg">
<path d="M19 15C19 7.8203 24.8203 2 32 2C39.1797 2 45 7.8203 45 15V16.5C45 17.3284 44.3284 18 43.5 18C42.6716 18 42 17.3284 42 16.5V15C42 9.47715 37.5228 5 32 5C26.4772 5 22 9.47715 22 15V16.5C22 17.3284 21.3284 18 20.5 18C19.6716 18 19 17.3284 19 16.5V15Z" fill="#222222"/>
<path d="M35 37C35 38.1104 34.3967 39.0799 33.5 39.5987V44.5C33.5 45.3284 32.8284 46 32 46C31.1716 46 30.5 45.3284 30.5 44.5V39.5987C29.6033 39.0799 29 38.1104 29 37C29 35.3431 30.3431 34 32 34C33.6569 34 35 35.3431 35 37Z" fill="#222222"/>
<path fill-rule="evenodd" clip-rule="evenodd" d="M9 30.5C9 25.2533 13.2533 21 18.5 21H45.5C50.7467 21 55 25.2533 55 30.5V48.5C55 53.7467 50.7467 58 45.5 58H18.5C13.2533 58 9 53.7467 9 48.5V30.5ZM18.5 24C14.9101 24 12 26.9101 12 30.5V48.5C12 52.0899 14.9102 55 18.5 55H45.5C49.0899 55 52 52.0899 52 48.5V30.5C52 26.9101 49.0899 24 45.5 24H18.5Z" fill="#222222"/>
</svg>
