<svg width="36" height="36" viewBox="0 0 36 36" fill="none" xmlns="http://www.w3.org/2000/svg">
<rect width="36" height="36" rx="9" fill="#51ADFF"/>
<path fill-rule="evenodd" clip-rule="evenodd" d="M8.375 9C6.51104 9 5 10.511 5 12.375V23.625C5 25.489 6.51104 27 8.375 27H20.625C22.489 27 24 25.489 24 23.625V22.901C24 22.7843 24.1339 22.7184 24.2264 22.7895L28.2836 25.9104C29.3933 26.7641 31 25.973 31 24.5729V11.4271C31 10.027 29.3933 9.23586 28.2836 10.0895L24.2264 13.2105C24.1339 13.2816 24 13.2157 24 13.099V12.375C24 10.511 22.489 9 20.625 9H8.375Z" fill="white"/>
<path d="M16.0181 16.2526C15.8782 15.9923 15.791 15.7071 15.7613 15.4131C15.7317 15.1191 15.7603 14.8222 15.8454 14.5392C15.9306 14.2563 16.0706 13.9929 16.2575 13.764C16.4445 13.5352 16.6746 13.3454 16.9349 13.2056C17.1952 13.0657 17.4804 12.9785 17.7744 12.9488C18.0684 12.9192 18.3653 12.9478 18.6483 13.0329C18.9312 13.1181 19.1946 13.2581 19.4235 13.445C19.6523 13.632 19.8421 13.8621 19.9819 14.1224" stroke="#222222" stroke-width="1.5" stroke-linecap="round" stroke-linejoin="round"/>
</svg>
