<svg width="24" height="24" viewBox="0 0 24 24" fill="none" xmlns="http://www.w3.org/2000/svg">
<path fill-rule="evenodd" clip-rule="evenodd" d="M5 4.25C2.92893 4.25 1.25 5.92893 1.25 8V16C1.25 18.0711 2.92893 19.75 5 19.75H14C16.0711 19.75 17.75 18.0711 17.75 16V15.2729L21.3954 17.8002C22.3901 18.4898 23.75 17.7779 23.75 16.5674V7.43257C23.75 6.22213 22.3901 5.51019 21.3954 6.19984L17.75 8.7271V8C17.75 5.92893 16.0711 4.25 14 4.25H5ZM17.75 10.5523V13.4477L22.25 16.5674V7.43257L17.75 10.5523ZM2.75 8C2.75 6.75736 3.75736 5.75 5 5.75H14C15.2426 5.75 16.25 6.75736 16.25 8V16C16.25 17.2426 15.2426 18.25 14 18.25H5C3.75736 18.25 2.75 17.2426 2.75 16V8Z" fill="#222222"/>
</svg>
