<svg width="64" height="64" viewBox="0 0 64 64" fill="none" xmlns="http://www.w3.org/2000/svg">
<path fill-rule="evenodd" clip-rule="evenodd" d="M39.6034 10.8975C41.7513 8.74965 45.2337 8.74965 47.3816 10.8975L50.1028 13.6187C52.2506 15.7666 52.2506 19.249 50.1028 21.3969L19.1103 52.3893C18.0788 53.4207 16.6799 54.0002 15.2212 54.0002H9.5C8.11929 54.0002 7 52.8809 7 51.5002V45.779C7 44.3203 7.57946 42.9214 8.61092 41.8899L39.6034 10.8975ZM45.2603 13.0189C44.284 12.0425 42.701 12.0425 41.7247 13.0189L37.4247 17.3189L43.6814 23.5756L47.9814 19.2756C48.9577 18.2993 48.9578 16.7163 47.9814 15.74L45.2603 13.0189ZM10.7322 44.0113L35.3034 19.4402L41.5601 25.6969L16.9889 50.268C16.5201 50.7368 15.8842 51.0002 15.2212 51.0002H10V45.779C10 45.116 10.2634 44.4801 10.7322 44.0113Z" fill="#222222"/>
<path d="M28.5 50.9998C27.6716 50.9998 27 51.6713 27 52.4998C27 53.3282 27.6716 53.9998 28.5 53.9998H55.5C56.3284 53.9998 57 53.3282 57 52.4998C57 51.6713 56.3284 50.9998 55.5 50.9998H28.5Z" fill="#222222"/>
</svg>
