<svg width="24" height="24" viewBox="0 0 24 24" fill="none" xmlns="http://www.w3.org/2000/svg">
<path d="M3.93934 3.93934C4.52513 3.35355 5.47487 3.35355 6.06066 3.93934L12 9.87868L17.9393 3.93934C18.5251 3.35355 19.4749 3.35355 20.0607 3.93934C20.6464 4.52513 20.6464 5.47487 20.0607 6.06066L14.1213 12L20.0607 17.9393C20.6464 18.5251 20.6464 19.4749 20.0607 20.0607C19.4749 20.6464 18.5251 20.6464 17.9393 20.0607L12 14.1213L6.06066 20.0607C5.47487 20.6464 4.52513 20.6464 3.93934 20.0607C3.35355 19.4749 3.35355 18.5251 3.93934 17.9393L9.87868 12L3.93934 6.06066C3.35355 5.47487 3.35355 4.52513 3.93934 3.93934Z" fill="#222222"/>
</svg>
